# xmcd CD database file
#
# Track frame offsets:
#	150
#	18426
#	34545
#	50065
#	66960
#	94163
#	109908
#	128545
#	142535
#	160951
#	180405
#	196728
#	213257
#	231737
#	248664
#	257725
#	269887
#	285118
#	296859
#	315460
#
# Disc length: 4422 seconds
#
# Revision: 0
# Processed by: cddbd v1.5.1PL0 Copyright (c) Steve Scherf et al.
# Submitted via: CDex 1.51
#
DISCID=21114414
DTITLE=Various Artists 2 - La Discotheque du Zouk Vol. 2
DYEAR=2000
DGENRE=Zouk Love
TTITLE0=Leila Chicot - In me'w en secre
TTITLE1=Regal Zouk - Pa Da ko
TTITLE2=Darius Denon - Je t'emmene
TTITLE3=Double Effet - Es ou pare
TTITLE4=Edouard Sevele - 2 z Matin (medley)
TTITLE5=Djezz - Tu sais deja
TTITLE6=Karbonn - Karbonize yo
TTITLE7=Double Effect - OK
TTITLE8=Karbonn - Il n'y a que toi qui m'ailles
TTITLE9=Pulsion - Courage
TTITLE10=Frantz Dorville - Chut!!!
TTITLE11=Frantz Dorville - Je serais la
TTITLE12=Elie - Regrets
TTITLE13=Edouard Sevele - Mes sentiments
TTITLE14=Koud Ke - Sew tou sel
TTITLE15=Alians - Ave tche
TTITLE16=Djezz - Dis-le moi
TTITLE17=Ludo - O kel ba trip
TTITLE18=Ludo - S.O.S.
TTITLE19=Edouard Sevele - zot toute ka crie
EXTD=YEAR: 2000
EXTT0=
EXTT1=
EXTT2=
EXTT3=
EXTT4=
EXTT5=
EXTT6=
EXTT7=
EXTT8=
EXTT9=
EXTT10=
EXTT11=
EXTT12=
EXTT13=
EXTT14=
EXTT15=
EXTT16=
EXTT17=
EXTT18=
EXTT19=
PLAYORDER=
